<svg width="17" height="17" viewBox="0 0 17 17" fill="none" xmlns="http://www.w3.org/2000/svg">
<path d="M13.2877 4.21152L13.2877 4.21137C13.2876 4.04574 13.2218 3.88693 13.1047 3.76981C12.9875 3.6527 12.8287 3.58686 12.6631 3.58676L12.6629 3.58676L6.29899 3.58676L6.29899 3.5866L6.29017 3.58691C6.12833 3.59262 5.97502 3.66093 5.86255 3.77745C5.75007 3.89396 5.68722 4.04958 5.68722 4.21152C5.68722 4.37347 5.75007 4.52909 5.86255 4.6456C5.97502 4.76211 6.12832 4.83042 6.29017 4.83613L6.29016 4.83629L6.29897 4.83629L11.1539 4.83668L4.44283 11.5478C4.32562 11.665 4.25977 11.8239 4.25977 11.9897C4.25977 12.1555 4.32562 12.3144 4.44283 12.4316C4.56004 12.5488 4.71901 12.6147 4.88477 12.6147C5.05053 12.6147 5.20951 12.5488 5.32672 12.4316L12.0378 5.72057L12.0382 10.5755H12.038L12.0383 10.5843C12.044 10.7461 12.1124 10.8995 12.2289 11.0119C12.3454 11.1244 12.501 11.1873 12.6629 11.1873C12.8249 11.1873 12.9805 11.1244 13.097 11.0119C13.2135 10.8995 13.2818 10.7461 13.2876 10.5843L13.2877 10.5843L13.2877 10.5755L13.2877 4.21152Z" fill="#111111" stroke="black" stroke-width="0.5"/>
</svg>
