<svg xmlns="http://www.w3.org/2000/svg" viewBox="0 0 1930.6 1930.6"><defs><style>.cls-1{fill:#4d4d4d;fill-rule:evenodd;}</style></defs><g id="Layer_2" data-name="Layer 2"><g id="Layer_1-2" data-name="Layer 1"><path class="cls-1" d="M636.72,1123l329.6,596.48,0-.06L1296,1123c247.48,47.44,362.67,14.83,378.53,272.88v224.22C1498.17,1811,1245.72,1930.6,965.3,1930.6S432.43,1811,256.07,1620.05V1498.93c.11-12.62.19-24.23.19-34.62,0-332,114.32-291.25,380.46-341.36Z"/><path class="cls-1" d="M672.82,569.47c-31.68-12.66-78.91-8.52-70.62,41.2,21.54,73.33,8.7,130.5,77.85,119.64C707,917.77,824.93,1058.93,966.36,1058.93s259.38-141.16,286.3-328.62c69.16,10.86,56.32-46.31,77.86-119.64,8.29-49.72-38.94-53.86-70.62-41.2,5-113.38,38.31-314.27-136.94-312.61-54.33-111.17-227.37-58.15-318.75-19.65C674.17,292,651.33,384.62,672.82,569.47Z"/><path class="cls-1" d="M1014.2,1327l29.3-50.74,29.3-50.75a55.24,55.24,0,0,0-47.85-82.86H907.76a55.24,55.24,0,0,0-47.84,82.86l29.3,50.75,29.3,50.74a55.24,55.24,0,0,0,95.68,0Z"/><path class="cls-1" d="M1014.2,1327l29.3,294,29.3,294.06q.46,4.68.9,9.39a968.24,968.24,0,0,1-214.7.24c.3-3.22.6-6.43.92-9.63l29.3-294.06,29.3-294c10.14-101.8,27.55-160.07,47.84-160.07s37.7,58.27,47.84,160.07Z"/><path class="cls-1" d="M965.3,0C432.18,0,0,432.18,0,965.3s432.18,965.3,965.3,965.3,965.3-432.18,965.3-965.3S1498.42,0,965.3,0Zm0,74.57c-491.93,0-890.73,398.8-890.73,890.73S473.37,1856,965.3,1856,1856,1457.24,1856,965.3,1457.24,74.57,965.3,74.57Z"/></g></g></svg>