<svg width="34" height="34" viewBox="0 0 34 34" fill="none" xmlns="http://www.w3.org/2000/svg">
<path d="M33.8244 17C33.8244 14.7905 33.3892 12.6027 32.5437 10.5615C31.6982 8.52024 30.4589 6.66551 28.8966 5.10321C27.3343 3.54091 25.4796 2.30162 23.4383 1.45611C21.3971 0.610595 19.2093 0.175415 16.9998 0.175415V3.54032C19.6618 3.54026 22.264 4.32953 24.4774 5.80833C26.6908 7.28712 28.416 9.38903 29.4349 11.8483C30.1114 13.4816 30.4596 15.2321 30.4595 17H33.8244ZM0.175293 13.6351V5.22278C0.175293 4.77656 0.352551 4.34863 0.668072 4.0331C0.983594 3.71758 1.41153 3.54032 1.85775 3.54032H10.27C10.7162 3.54032 11.1442 3.71758 11.4597 4.0331C11.7752 4.34863 11.9525 4.77656 11.9525 5.22278V11.9526C11.9525 12.3988 11.7752 12.8267 11.4597 13.1423C11.1442 13.4578 10.7162 13.6351 10.27 13.6351H6.90511C6.90511 17.2048 8.32318 20.6283 10.8473 23.1525C13.3715 25.6766 16.795 27.0947 20.3647 27.0947V23.7298C20.3647 23.2836 20.542 22.8556 20.8575 22.5401C21.173 22.2246 21.601 22.0473 22.0472 22.0473H28.777C29.2232 22.0473 29.6512 22.2246 29.9667 22.5401C30.2822 22.8556 30.4595 23.2836 30.4595 23.7298V32.142C30.4595 32.5883 30.2822 33.0162 29.9667 33.3317C29.6512 33.6472 29.2232 33.8245 28.777 33.8245H20.3647C9.21512 33.8245 0.175293 24.7847 0.175293 13.6351Z" fill="#FFBF34"/>
<path d="M26.3258 13.1371C26.8333 14.3617 27.0946 15.6744 27.0947 17H24.0663C24.0663 15.1259 23.3218 13.3286 21.9966 12.0034C20.6714 10.6782 18.8741 9.93369 17 9.93369V6.90527C18.9965 6.90538 20.9481 7.49749 22.6081 8.60674C24.2681 9.71599 25.5619 11.2926 26.3258 13.1371Z" fill="#FFBF34"/>
</svg>
