<svg width="62" height="62" viewBox="0 0 62 62" fill="none" xmlns="http://www.w3.org/2000/svg">
<path d="M54.9002 30.9999C54.9002 27.8613 54.282 24.7533 53.0809 21.8536C51.8798 18.9538 50.1193 16.319 47.8999 14.0997C45.6805 11.8803 43.0458 10.1198 40.146 8.91869C37.2463 7.71757 34.1383 7.09937 30.9997 7.09937V11.8795C34.7812 11.8794 38.4778 13.0006 41.6221 15.1013C44.7664 17.2021 47.2172 20.188 48.6646 23.6816C49.6257 26.0018 50.1203 28.4886 50.1201 30.9999H54.9002ZM7.09912 26.2198V14.2695C7.09912 13.6356 7.35093 13.0277 7.79915 12.5795C8.24737 12.1313 8.85529 11.8795 9.48918 11.8795H21.4395C22.0733 11.8795 22.6813 12.1313 23.1295 12.5795C23.5777 13.0277 23.8295 13.6356 23.8295 14.2695V23.8298C23.8295 24.4636 23.5777 25.0716 23.1295 25.5198C22.6813 25.968 22.0733 26.2198 21.4395 26.2198H16.6593C16.6593 31.2909 18.6738 36.1542 22.2596 39.74C25.8454 43.3258 30.7087 45.3402 35.7798 45.3402V40.5601C35.7798 39.9263 36.0316 39.3183 36.4798 38.8701C36.928 38.4219 37.536 38.1701 38.1698 38.1701H47.7301C48.3639 38.1701 48.9719 38.4219 49.4201 38.8701C49.8683 39.3183 50.1201 39.9263 50.1201 40.5601V52.5104C50.1201 53.1443 49.8683 53.7522 49.4201 54.2004C48.9719 54.6487 48.3639 54.9005 47.7301 54.9005H35.7798C19.9409 54.9005 7.09912 42.0587 7.09912 26.2198Z" fill="#FFBF"/>
<path d="M44.2481 25.5124C44.9689 27.2522 45.3401 29.1168 45.3403 31H41.0382C41.0382 28.3377 39.9806 25.7844 38.0981 23.9019C36.2156 22.0194 33.6623 20.9618 31 20.9618V16.6597C33.8362 16.6598 36.6086 17.501 38.9667 19.0767C41.3249 20.6525 43.1628 22.8921 44.2481 25.5124Z" fill="#FFBF"/>
</svg>
