<svg xmlns="http://www.w3.org/2000/svg" viewBox="0 0 1930.6 1930.6"><defs><style>.cls-1{fill:#4d4d4d;fill-rule:evenodd;}</style></defs><g id="Layer_2" data-name="Layer 2"><g id="Layer_1-2" data-name="Layer 1"><path class="cls-1" d="M965.3,0C432.18,0,0,432.18,0,965.3s432.18,965.3,965.3,965.3,965.3-432.18,965.3-965.3S1498.42,0,965.3,0Zm0,74.57c-491.93,0-890.73,398.8-890.73,890.73S473.37,1856,965.3,1856,1856,1457.24,1856,965.3,1457.24,74.57,965.3,74.57Z"/><path class="cls-1" d="M939.87,737.47H838.5c-35.73,0-66.42,10.06-84.28,27.62s-17.87,37.68,0,55.25l51.61,50.74,51.62,50.74L790.92,1113c81.12,47.89,151.62,169.48,174.38,217.84a47.4,47.4,0,0,0,6.36-12.93c27.75-54.4,93.38-160.85,168-204.91l-66.53-191.22,51.61-50.74,51.61-50.74c17.87-17.57,17.87-37.68,0-55.25s-48.55-27.62-84.28-27.62H939.87Z"/><path class="cls-1" d="M1436.39,934.49c-37.5,77.29-303.87,83.83-471.09,84.5-167.21-.67-433.59-7.21-471.08-84.5C474.3,937,592.05,796.72,612.35,557.67,627,384.67,714.78,211.53,965.3,190.24c250.52,21.29,338.26,194.43,353,367.43,20.3,239.05,138,379.34,118.14,376.82Z"/><path class="cls-1" d="M769.56,1123c-36.95,32.63-67.62,232.48,43.26,200.49,80.11-23.12,126.35,56.82,152.48,99.87V1930.6c-260.87,0-497.52-103.52-671.25-271.67l41.25-272.75c14.48-95.8,27.39-138,85.35-163.14,92.71-40.27,247.26-75,348.91-100.09Z"/><path class="cls-1" d="M1161,1123c37,32.63,67.62,232.48-43.25,200.49-80.11-23.12-126.36,56.82-152.49,99.87V1930.6c260.87,0,497.53-103.52,671.25-271.67l-41.24-272.75c-14.49-95.8-27.4-138-85.36-163.14-92.71-40.27-247.26-75-348.91-100.09Z"/></g></g></svg>