<svg width="32" height="20" viewBox="0 0 32 20" fill="none" xmlns="http://www.w3.org/2000/svg">
<g clip-path="url(#clip0_154_2)">
<path d="M5.86724 4.76174L4.75 4.85635L6.35979 4.61224L10.0387 4.05759L16.2965 3.10934C17.1408 2.97429 18.1497 2.63413 18.9153 3.22778C19.436 3.63366 19.8433 4.32336 20.2253 4.85779C20.7482 5.58938 21.2581 6.33469 21.7477 7.09661C21.7846 7.15439 21.9008 7.41944 21.9608 7.44038L23.9988 8.1828L16.844 6.73046C16.758 6.70962 16.6788 6.66726 16.6138 6.60738C16.5487 6.5475 16.4999 6.47205 16.472 6.38813C16.3785 6.1423 16.3096 5.88781 16.2662 5.62838C16.2089 5.06674 16.194 4.50159 16.2214 3.93771C14.8745 4.03376 10.8569 4.35803 7.95441 4.59419L5.86724 4.76174Z" fill="url(#paint0_linear_154_2)"/>
<path d="M13.7745 14.8248V16.8571H13.8771C14.5365 16.6166 14.7235 15.7824 14.7235 15.7824C14.7235 15.7824 17.6325 15.8734 18.7541 15.8857C18.9217 15.8857 19.0618 16.0301 19.0892 16.2288C19.1111 16.3693 19.141 16.5084 19.1788 16.6455H20.0418V15.8756C20.0418 15.8756 20.2585 16.8397 20.9518 17.5807C21.6451 18.3217 22.7233 18.3795 23.6492 18.1585C24.5751 17.9375 25.2337 16.6382 25.2337 16.6382C25.5948 17.3604 26.5835 17.9729 27.9318 17.6017C28.7645 17.3727 29.0765 16.4461 29.195 15.7687C29.6615 15.7795 29.9749 15.7846 29.9749 15.7846C29.9749 15.7846 30.3685 15.5614 31.3219 15.3051C32.2752 15.0487 31.9451 14.1293 31.9451 14.1293C31.9451 14.1293 31.8808 12.7181 31.8454 12.6618C31.8101 12.6055 31.675 12.3426 31.675 12.4661C31.675 12.3534 31.6663 10.6454 31.4685 10.0713C31.4685 10.0713 31.2215 9.23063 29.1747 8.32138C27.128 7.41213 26.4802 7.17452 26.4802 7.17452C26.4802 7.17452 23.7279 3.98889 22.9284 3.43208C22.888 3.40463 22.8432 3.37574 22.7955 3.34541C21.8827 2.77415 19.5976 1.86418 18.4804 1.73274C18.1366 1.69302 16.9392 1.92195 15.406 2.27222L0 4.9682L10.4084 3.50863L15.5901 2.7821L18.1272 2.42605C18.453 2.42605 18.5938 2.49466 18.7621 2.63116C18.8545 2.70338 18.9549 2.80087 19.0986 2.91642L19.6511 3.52957L22.251 6.40393C22.5182 6.5036 22.8071 6.50793 23.0787 6.55487C23.517 6.63287 23.9532 6.7152 24.3902 6.80475C24.9152 6.94125 25.4959 7.09363 26.0173 7.24746C26.1863 7.32907 26.2816 7.35002 26.3293 7.33702C26.6925 7.43972 27.0499 7.56244 27.3996 7.70462C28.3247 8.12205 30.505 8.93814 30.7802 9.4769C30.3635 9.40468 29.0151 9.10496 28.9285 9.17863C28.8418 9.25229 28.8115 9.23496 28.8425 9.25085C28.8736 9.26674 28.1398 9.03419 28.1398 9.03419C28.1398 9.03419 26.7395 8.32715 26.3603 8.32715C25.9812 8.32715 24.7953 8.24193 24.8899 8.63192C24.9845 9.02191 25.9357 10.7184 28.1759 11.1452C27.5894 11.1159 27.0153 10.9656 26.4896 10.7039C26.4896 10.7039 26.1718 11.4001 25.7241 11.4564C25.2763 11.5128 23.9048 11.5503 23.551 11.7193C21.7592 10.0879 20.434 11.8876 20.434 11.8876L19.7746 11.7482L13.7745 11.9909V13.3313L19.1622 13.2916C19.0538 13.7884 19.069 14.9851 19.069 14.9851L13.7745 14.8248ZM28.3269 9.60039L28.8288 10.8469C28.8859 10.9914 28.7746 11.1495 28.6425 11.1083C28.2222 10.9726 27.8047 10.8281 27.388 10.6656C26.7648 10.4266 26.33 10.0337 25.8483 9.52023C25.7494 9.41623 25.6526 9.31368 25.5594 9.20607C25.4662 9.09846 25.251 8.92225 25.1983 8.77275C25.0806 8.44198 25.6121 8.55609 25.7385 8.55609C26.0146 8.54398 26.2912 8.56239 26.5633 8.61098C27.0746 8.72003 27.5491 8.98291 28.0214 9.23496C28.1628 9.31735 28.2709 9.44664 28.3269 9.60039ZM29.377 10.5884C29.291 10.558 29.2137 10.6541 29.2434 10.7523C29.2881 10.9047 29.3481 11.0758 29.3878 11.1018C29.4665 11.1481 30.9579 11.7323 31.1651 11.7518C31.3724 11.7713 31.4092 11.7518 31.4092 11.7518C31.4092 11.7518 31.4042 11.8963 31.0907 11.8724C30.7773 11.8486 29.4911 11.3525 29.3734 11.2947C29.3342 11.2752 29.2995 11.2478 29.2714 11.2142C29.2433 11.1807 29.2225 11.1417 29.2101 11.0997L28.8158 9.84955C28.7775 9.73039 28.8606 9.60834 28.966 9.62784L30.7556 9.92755C30.7556 9.92755 30.8965 10.2164 30.6379 10.181C30.4285 10.1507 29.4766 9.97088 29.1155 9.90227C29.0995 9.90156 29.0835 9.90486 29.069 9.91187C29.0546 9.91888 29.0421 9.92938 29.0327 9.94242C29.0233 9.95546 29.0173 9.97064 29.0153 9.98658C29.0132 10.0025 29.0151 10.0187 29.0209 10.0337L29.0426 10.1139C29.0532 10.1572 29.0746 10.197 29.105 10.2296C29.1353 10.2622 29.1735 10.2865 29.2159 10.3002C29.611 10.4071 30.7679 10.7335 30.7954 10.8296C30.8243 10.943 30.4047 10.9415 29.377 10.5855V10.5884ZM31.2547 11.4001C31.129 11.4211 30.9875 11.1112 30.9391 10.7039C30.8907 10.2966 30.9535 9.95138 31.0835 9.93261C31.2135 9.91383 31.3507 10.2215 31.3998 10.6288C31.449 11.0361 31.3804 11.3763 31.254 11.3972L31.2547 11.4001ZM29.2824 13.8347C29.3026 13.779 29.6268 12.8727 29.7641 12.7102C29.9013 12.5477 30.2696 12.6127 30.9196 12.7102C30.9196 12.7102 31.6671 12.877 31.7609 12.9189L31.2713 13.1247L31.2944 13.5703L30.1779 13.4873C30.1779 13.4873 29.7778 13.3891 29.6825 13.3717C29.5871 13.3544 29.3091 13.7892 29.2816 13.8318L29.2824 13.8347ZM26.3293 13.6296C26.3293 13.6296 26.6817 12.5997 27.3165 12.474C27.9513 12.3484 29.2224 12.6084 29.2224 12.6084C29.2224 12.6084 28.3168 12.6553 28.3168 12.864C28.3168 12.864 28.1052 13.4187 28.1052 13.4894C28.1052 13.5602 28.6938 13.7783 28.7638 13.8375C28.8339 13.8968 26.3286 13.6267 26.3286 13.6267L26.3293 13.6296ZM22.7992 13.3775C23.5437 13.4281 24.1482 14.1503 24.1937 15.027C24.2508 16.0966 23.504 16.977 22.6006 16.9098C21.8545 16.8527 21.2493 16.1385 21.2031 15.2567C21.1489 14.1878 21.895 13.306 22.7984 13.3746L22.7992 13.3775ZM20.1884 14.5114C20.257 13.1832 21.1836 12.118 22.3088 12.0718C23.0642 12.0414 23.7373 12.4581 24.1533 13.1175C23.6138 12.5542 22.836 12.3007 22.0199 12.5896C21.336 12.8322 20.7987 13.4736 20.595 14.2839C20.374 15.1642 20.5379 16.0078 20.933 16.6332C20.4419 16.124 20.1451 15.3592 20.1884 14.5114Z" fill="url(#paint1_linear_154_2)"/>
<path d="M18.448 9.47555C16.8953 9.53982 15.3151 9.57882 13.7747 9.60121V9.03284C16.7841 9.17655 18.448 9.47555 18.448 9.47555Z" fill="url(#paint2_linear_154_2)"/>
</g>
<defs>
<linearGradient id="paint0_linear_154_2" x1="4.75" y1="5.53594" x2="23.9988" y2="5.53594" gradientUnits="userSpaceOnUse">
<stop stop-color="#BC8C3F"/>
<stop offset="1" stop-color="#EBD885"/>
</linearGradient>
<linearGradient id="paint1_linear_154_2" x1="0" y1="9.99977" x2="32" y2="9.99977" gradientUnits="userSpaceOnUse">
<stop stop-color="#BC8C3F"/>
<stop offset="1" stop-color="#EBD885"/>
</linearGradient>
<linearGradient id="paint2_linear_154_2" x1="13.7747" y1="9.31666" x2="18.448" y2="9.31666" gradientUnits="userSpaceOnUse">
<stop stop-color="#BC8C3F"/>
<stop offset="1" stop-color="#EBD885"/>
</linearGradient>
<clipPath id="clip0_154_2">
<rect width="32" height="20" fill="white"/>
</clipPath>
</defs>
</svg>
