<svg width="13" height="17" viewBox="0 0 13 17" fill="none" xmlns="http://www.w3.org/2000/svg">
<g clip-path="url(#clip0_47_263)">
<path d="M8.87726 6.80078C8.85643 7.50911 8.61684 8.10286 8.15851 8.58203C7.67934 9.04036 7.08559 9.27995 6.37726 9.30078C5.66892 9.27995 5.07517 9.04036 4.59601 8.58203C4.13768 8.10286 3.89809 7.50911 3.87726 6.80078C3.89809 6.09245 4.13768 5.4987 4.59601 5.01953C5.07517 4.5612 5.66892 4.32161 6.37726 4.30078C7.08559 4.32161 7.67934 4.5612 8.15851 5.01953C8.61684 5.4987 8.85643 6.09245 8.87726 6.80078ZM6.37726 5.80078C6.08559 5.80078 5.84601 5.89453 5.65851 6.08203C5.47101 6.26953 5.37726 6.50911 5.37726 6.80078C5.37726 7.09245 5.47101 7.33203 5.65851 7.51953C5.84601 7.70703 6.08559 7.80078 6.37726 7.80078C6.66892 7.80078 6.90851 7.70703 7.09601 7.51953C7.28351 7.33203 7.37726 7.09245 7.37726 6.80078C7.37726 6.50911 7.28351 6.26953 7.09601 6.08203C6.90851 5.89453 6.66892 5.80078 6.37726 5.80078ZM12.3773 6.80078C12.3356 7.73828 12.0023 8.82161 11.3773 10.0508C10.7314 11.2799 10.0023 12.4674 9.18976 13.6133C8.37726 14.7799 7.68976 15.707 7.12726 16.3945C6.91892 16.6445 6.66892 16.7695 6.37726 16.7695C6.08559 16.7695 5.83559 16.6445 5.62726 16.3945C5.06476 15.707 4.36684 14.7799 3.53351 13.6133C2.72101 12.4674 2.00226 11.2799 1.37726 10.0508C0.752258 8.82161 0.418925 7.73828 0.377258 6.80078C0.418925 5.09245 1.00226 3.67578 2.12726 2.55078C3.25226 1.42578 4.66892 0.842448 6.37726 0.800781C8.08559 0.842448 9.50226 1.42578 10.6273 2.55078C11.7523 3.67578 12.3356 5.09245 12.3773 6.80078ZM6.37726 2.30078C5.10642 2.34245 4.04393 2.77995 3.18976 3.61328C2.35643 4.46745 1.91892 5.52995 1.87726 6.80078C1.87726 7.19661 2.03351 7.79036 2.34601 8.58203C2.70018 9.3737 3.14809 10.207 3.68976 11.082C4.12726 11.8112 4.58559 12.4987 5.06476 13.1445C5.54392 13.8112 5.98142 14.4049 6.37726 14.9258C6.77309 14.4049 7.21059 13.8216 7.68976 13.1758C8.16892 12.5091 8.62726 11.8112 9.06476 11.082C9.60643 10.207 10.0543 9.3737 10.4085 8.58203C10.721 7.79036 10.8773 7.19661 10.8773 6.80078C10.8356 5.52995 10.3981 4.46745 9.56476 3.61328C8.71059 2.77995 7.64809 2.34245 6.37726 2.30078Z" fill="#9999"/>
</g>
<defs>
<clipPath id="clip0_47_263">
<rect width="12" height="16" fill="white" transform="matrix(1 0 0 -1 0.377258 16.8008)"/>
</clipPath>
</defs>
</svg>
