<svg width="15" height="13" viewBox="0 0 15 13" fill="none" xmlns="http://www.w3.org/2000/svg">
<path d="M13.4633 6.23438C14.2289 6.42578 14.8305 7.10938 14.8305 7.92969V9.24219C14.8305 9.89844 14.475 10.4727 13.9555 10.7734V11.8672C13.9555 12.3594 13.5453 12.7422 13.0805 12.7422H12.2055C11.7133 12.7422 11.3305 12.3594 11.3305 11.8672V10.9922H4.33048V11.8672C4.33048 12.3594 3.92032 12.7422 3.45548 12.7422H2.58048C2.08829 12.7422 1.70548 12.3594 1.70548 11.8672V10.7734C1.15861 10.4727 0.830481 9.89844 0.830481 9.24219V7.92969C0.830481 7.10938 1.4047 6.42578 2.19767 6.23438L2.79923 3.91016C3.04532 2.95312 3.92032 2.24219 4.87736 2.24219H5.20548V1.36719C5.20548 0.902344 5.58829 0.492188 6.08048 0.492188H9.58048C10.0453 0.492188 10.4555 0.902344 10.4555 1.36719V2.24219H10.7563C11.7133 2.24219 12.5883 2.95312 12.8617 3.91016L13.4633 6.23438ZM3.45548 9.24219C3.92032 9.24219 4.33048 8.85938 4.33048 8.36719C4.33048 7.90234 3.92032 7.49219 3.45548 7.49219C2.96329 7.49219 2.58048 7.90234 2.58048 8.36719C2.58048 8.85938 2.96329 9.24219 3.45548 9.24219ZM4.00236 6.17969H11.6313L11.1664 4.34766C11.1117 4.15625 10.893 3.99219 10.7563 3.99219H4.87736C4.74064 3.99219 4.52189 4.15625 4.4672 4.375L4.00236 6.17969ZM12.2055 9.24219C12.6703 9.24219 13.0805 8.85938 13.0805 8.36719C13.0805 7.90234 12.6703 7.49219 12.2055 7.49219C11.7133 7.49219 11.3305 7.90234 11.3305 8.36719C11.3305 8.85938 11.7133 9.24219 12.2055 9.24219Z" fill="#454545"/>
</svg>
