<svg width="14" height="15" viewBox="0 0 14 15" fill="none" xmlns="http://www.w3.org/2000/svg">
<path d="M7.07746 0.835938C10.8236 0.835938 13.8587 3.87109 13.8587 7.61719C13.8587 11.3633 10.8236 14.3984 7.07746 14.3984C3.33136 14.3984 0.296207 11.3633 0.296207 7.61719C0.296207 3.87109 3.33136 0.835938 7.07746 0.835938ZM7.07746 3.46094C5.73761 3.46094 4.67121 4.55469 4.67121 5.86719C4.67121 7.20703 5.73761 8.27344 7.07746 8.27344C8.38996 8.27344 9.48371 7.20703 9.48371 5.86719C9.48371 4.55469 8.38996 3.46094 7.07746 3.46094ZM7.07746 12.8672C8.66339 12.8672 10.1126 12.1562 11.0696 11.0078C10.5501 10.0508 9.53839 9.36719 8.38996 9.36719C8.30793 9.36719 8.25324 9.39453 8.17121 9.42188C7.84308 9.53125 7.46027 9.58594 7.07746 9.58594C6.6673 9.58594 6.31183 9.53125 5.95636 9.42188C5.87433 9.39453 5.81964 9.36719 5.76496 9.36719C4.58918 9.36719 3.57746 10.0508 3.05793 11.0078C4.01496 12.1562 5.46418 12.8672 7.07746 12.8672Z" fill="#454545"/>
</svg>
