<svg xmlns="http://www.w3.org/2000/svg" xmlns:xlink="http://www.w3.org/1999/xlink" viewBox="0 0 890.04 229.06"><defs><style>.cls-1{font-size:72.08px;fill:#999;font-family:Montserrat-Regular, Montserrat;letter-spacing:-0.03em;}.cls-2{letter-spacing:-0.03em;}.cls-3{letter-spacing:-0.02em;}.cls-4{letter-spacing:0em;}.cls-5{fill:url(#linear-gradient);}.cls-6{fill:url(#linear-gradient-2);}.cls-7{fill:url(#linear-gradient-3);}.cls-8{fill:url(#linear-gradient-4);}.cls-9{fill:url(#linear-gradient-5);}.cls-10{fill:url(#linear-gradient-6);}.cls-11{fill:url(#linear-gradient-7);}.cls-12{fill:url(#linear-gradient-8);}.cls-13{fill:url(#linear-gradient-9);}.cls-14{fill:url(#linear-gradient-10);}.cls-15{fill:url(#linear-gradient-11);}.cls-16{fill:url(#linear-gradient-12);}.cls-17{fill:url(#linear-gradient-13);}.cls-18{fill:url(#linear-gradient-14);}.cls-19{fill:url(#linear-gradient-15);}.cls-20{fill:url(#linear-gradient-16);}</style><linearGradient id="linear-gradient" x1="46.9" y1="85.82" x2="93.46" y2="85.82" gradientUnits="userSpaceOnUse"><stop offset="0" stop-color="#bc8c3f"/><stop offset="1" stop-color="#ebd885"/></linearGradient><linearGradient id="linear-gradient-2" x1="69.4" y1="98.3" x2="133.53" y2="98.3" xlink:href="#linear-gradient"/><linearGradient id="linear-gradient-3" x1="112.15" y1="112.01" x2="182.1" y2="112.01" xlink:href="#linear-gradient"/><linearGradient id="linear-gradient-4" x1="170.57" y1="97.69" x2="233.02" y2="97.69" xlink:href="#linear-gradient"/><linearGradient id="linear-gradient-5" x1="207.27" y1="107.82" x2="282.82" y2="107.82" xlink:href="#linear-gradient"/><linearGradient id="linear-gradient-6" x1="271.85" y1="97.69" x2="330.83" y2="97.69" xlink:href="#linear-gradient"/><linearGradient id="linear-gradient-7" x1="325.79" y1="93.38" x2="370.45" y2="93.38" xlink:href="#linear-gradient"/><linearGradient id="linear-gradient-8" x1="359.59" y1="98.36" x2="407.71" y2="98.36" xlink:href="#linear-gradient"/><linearGradient id="linear-gradient-9" x1="393.5" y1="98.3" x2="480.01" y2="98.3" xlink:href="#linear-gradient"/><linearGradient id="linear-gradient-10" x1="468.48" y1="97.69" x2="530.93" y2="97.69" xlink:href="#linear-gradient"/><linearGradient id="linear-gradient-11" x1="520.63" y1="101.88" x2="581.63" y2="101.88" xlink:href="#linear-gradient"/><linearGradient id="linear-gradient-12" x1="570.21" y1="85.82" x2="616.77" y2="85.82" xlink:href="#linear-gradient"/><linearGradient id="linear-gradient-13" x1="512.71" y1="52.72" x2="779.25" y2="52.72" xlink:href="#linear-gradient"/><linearGradient id="linear-gradient-14" x1="446.95" y1="114.53" x2="890.04" y2="114.53" xlink:href="#linear-gradient"/><linearGradient id="linear-gradient-15" x1="637.68" y1="105.07" x2="702.38" y2="105.07" xlink:href="#linear-gradient"/><linearGradient id="linear-gradient-16" x1="0" y1="84.38" x2="55.7" y2="84.38" xlink:href="#linear-gradient"/></defs><g id="Layer_2" data-name="Layer 2"><g id="Layer_1-2" data-name="Layer 1"><text class="cls-1" transform="translate(457.96 204.48)">T<tspan class="cls-2" x="38.85" y="0">A</tspan><tspan class="cls-3" x="88.22" y="0">X</tspan><tspan class="cls-4" x="133.77" y="0">I</tspan></text><path class="cls-5" d="M46.9,112.85c0-6.94,18.91-36.93,23.73-36.93,2.35,0,6.6,2.57,6.6,4.14,0,.22-.11.45-.56.67-2.8,1.23-20.14,24.62-20.14,30.11,0,.67.33,1.12,1,1.12,3,0,15.22-8.17,23.73-15.78a.8.8,0,0,1,.45-.12c.89,0,1.9,1.68,1.9,3.14a2.12,2.12,0,0,1-.22.89C71.3,111.4,57.87,121.36,53.62,121.36,50.82,121.36,46.9,116,46.9,112.85ZM93.46,54.77a.51.51,0,0,1-.56.44C90.33,55.66,81.6,65.85,80,68a.55.55,0,0,1-.45.23c-1.23,0-3.36-2.69-3.24-4.59.11-3.36,7-13.32,10.63-13.32C89.54,50.29,93.46,53.54,93.46,54.77Z"/><path class="cls-6" d="M133.53,99.2a2.12,2.12,0,0,1-.23.89c-11.3,10.52-23.73,19.48-27.64,19.48-2.91,0-6.16-5-6.16-8.73,0-6.49,10.3-20.71,14.1-25.18l-.44-.45c-6.27,4.7-34.59,29.77-37.61,35.7a1.46,1.46,0,0,1-1.34.78c-2,0-4.81-4-4.81-7.16a3.91,3.91,0,0,1,.55-2c5.71-9.07,23.17-32.8,23.17-36.27,0-.22-.11-.44-.11-.67,0-.44.45-.67,1-.67,2.12,0,6.71,3,6.6,6.16-.11,1.45-10.41,15.55-17.57,25.52,11.19-11.53,31.45-30.78,36.37-30.78,2.13,0,7.28,4.92,7.28,7a.85.85,0,0,1-.67.89c-8,6.38-17,20.82-17,25.19,0,.78.34,1.23,1,1.23,2.58,0,12.2-6.16,21.16-14a.78.78,0,0,1,.44-.12C132.52,96.06,133.53,97.74,133.53,99.2Z"/><path class="cls-7" d="M112.15,140.27c0-7.05,13.54-11.41,31.45-20.37,4.25-6.26,8.06-12.76,10.85-17.9-5.7,6.26-20.14,19.13-26.07,19.13-3.25,0-7.5-4.36-7.5-7.72,0-10.63,21.93-38.27,34.58-38.27,4.48,0,10.3,3.69,10.3,7.38,0,2.24-2.13,6.16-4.37,6.16a2.64,2.64,0,0,1-1.45-.56,6.87,6.87,0,0,0,1.23-3.92c0-1.34-.67-2.68-2.91-2.68-9.63,0-28,23.5-28,29.77,0,1,.45,1.56,1.45,1.56,5,0,26.08-19.36,27.87-21.49a1.57,1.57,0,0,1,1-.33c2.24,0,5.93,3,5.93,4.48a.84.84,0,0,1-.22.55,117.71,117.71,0,0,1-8.29,16,149,149,0,0,0,21.72-15.89.78.78,0,0,1,.44-.12c.9,0,1.91,1.68,1.91,3.14a2,2,0,0,1-.23.89c-6.38,6.5-18.8,14.33-28.31,19.14-9.52,14.55-22.39,29.66-32.35,29.66A9.14,9.14,0,0,1,112.15,140.27Zm27.19-13.76c-12.31,5.93-22.49,12.08-22.49,14.55,0,.67.45,1,1.34,1C124.12,142.06,133.86,134,139.34,126.51Z"/><path class="cls-8" d="M233,99.2a2,2,0,0,1-.23.89c-11.19,10.3-22.94,19.48-26.18,19.48-2.24,0-6.16-4-6.16-6.94,0-2.13,1.34-6.27,2.91-9.85-6.83,7.27-20.26,19.14-25.18,19.14-3.25,0-7.61-4.93-7.61-9.18,0-10.52,22.72-39.28,36-39.28,4.81,0,11.19,3.69,11.19,7.38,0,2.24-2.13,6.16-4.37,6.16a2.56,2.56,0,0,1-1.45-.56,6.87,6.87,0,0,0,1.23-3.92c0-1.34-.67-2.68-2.91-2.68-10.63,0-30.56,25.29-30.56,31.67a1.28,1.28,0,0,0,1.35,1.46c5.26,0,26.3-19.37,28.54-21.61a2.75,2.75,0,0,1,1.9-.89c2.69,0,5.71,3.8,5.71,5.15a.55.55,0,0,1-.23.44c-1.23,1.35-7.16,10.3-7.16,13.32,0,.67.22,1,.78,1,2.35,0,11.31-6.71,20-14.21a.78.78,0,0,1,.44-.12C232,96.06,233,97.74,233,99.2Z"/><path class="cls-9" d="M282.82,99.2a2.12,2.12,0,0,1-.22.89c-12.2,11.2-29.78,20.37-39.85,20.37-5.15,0-7.61-4.36-7.61-6.49,0-.67.22-1.12.78-1.12a2.52,2.52,0,0,1,1.35.67c11.52,0,28.09-21.26,28.09-29.21,0-1.34-.45-2-1.68-2-5.93,0-23.28,17-31,25.52-10.07,14-18.8,27.19-18.8,33.8a3.46,3.46,0,0,1,.22.89c0,.67-.34.9-.9.9-1.9,0-6-3.36-5.93-8.4.12-8.62,34.7-56.85,34.7-61.44a5,5,0,0,1-.11-.56.79.79,0,0,1,.89-.78c1.68,0,6,3,6,6.15,0,2.13-3.46,8.06-8.61,15.56,8.06-8.51,19.81-18.47,26.3-18.47,4,0,7.16,4.59,7.16,8.84,0,6.16-6.94,18.69-14.55,25.63a88.94,88.94,0,0,0,21.38-13.76.79.79,0,0,1,.45-.12C281.81,96.06,282.82,97.74,282.82,99.2Z"/><path class="cls-10" d="M330.83,94.39a2.1,2.1,0,0,1-1.12,2.12,114.72,114.72,0,0,1-19,6c-7.05,9.4-18.46,18.91-26.63,18.91-7.84,0-12.2-6.49-12.2-10.74,0-5.26,6.15-13.21,11.08-16.12a14,14,0,0,1-.56-3.81c0-7.16,11.86-16.9,21.26-16.9,9.74,0,13.32,10.52,13.32,14.78a17.54,17.54,0,0,1-2,6.94c6.71-.79,12.76-2.13,15-3C330.38,92.48,330.83,93.49,330.83,94.39Zm-32,9.51c-5.37-.11-10-1.68-13-4.59-3.25,3.47-6.72,9.18-6.72,12.54,0,1.67.78,2.68,2.8,2.68C286.17,114.53,292.89,109.83,298.82,103.9ZM288,92.48c0,2.8,6.49,4,14.33,4H305c3-4.36,5-8.61,5-12.09,0-2.9-1.56-4.14-3.92-4.14C299.38,80.28,288,88.9,288,92.48Z"/><path class="cls-11" d="M370.45,99.2a2,2,0,0,1-.23.89c-11.08,10.41-26.52,22.16-31.89,22.16-3.7,0-7.84-5.82-7.84-9,0-6.94,19.59-23.28,19.59-27.42,0-1.34-2.35-2-5.26-2.69-4.59,5-10.3,10.86-16.79,16.9a.8.8,0,0,1-.45.12c-1.12,0-1.79-1.79-1.79-3.14a2.19,2.19,0,0,1,.11-.89c5-4.59,10.08-9.52,14.11-13.88-4.37-.9-8.51-2.13-8.51-5,0-5.15,8.84-12.76,15.67-12.76,3.24,0,7.83,2.8,7.83,4.59,0,1.57-2.68,5.49-7.16,10.75a19.62,19.62,0,0,1,4.81,1.68c3,1.67,4.37,5.59,4.37,7.49,0,3.47-16.46,19.37-16.46,23.06,0,.45.34.78,1,.78,5.49,0,18.13-9.29,26.53-16.67a.78.78,0,0,1,.44-.12C369.44,96.06,370.45,97.74,370.45,99.2ZM343.14,78.72c3.47-4.14,5.71-7.5,5.71-9,0-.56-.34-.89-1-.89-2.91,0-8.06,4.7-8.06,7.61C339.78,77.6,341.12,78.16,343.14,78.72Z"/><path class="cls-12" d="M407.71,99.2a2.12,2.12,0,0,1-.22.89c-8.28,7.5-25.74,21.38-35.7,21.38-6.94,0-12.2-6.71-12.2-12.31,0-10.41,18.35-33.91,29.88-33.91,5.26,0,10.41,5.37,10.41,9.06,0,6.27-12.76,16.57-24.4,16.57a13.77,13.77,0,0,1-3.8-.56c-2.24,3.58-3.7,6.94-3.7,9.4s1.23,3.92,4.48,3.92c10,0,30-14.67,32.9-17.46a.82.82,0,0,1,.45-.12C406.82,96.06,407.71,97.85,407.71,99.2Zm-33.12-3H375c6.38,0,18.81-8.85,18.81-13.1,0-.67-.45-1.23-1.68-1.23C387.9,81.85,380.07,88.79,374.59,96.18Z"/><path class="cls-13" d="M480,99.2a2.12,2.12,0,0,1-.22.89c-11.3,10.52-23.73,19.48-27.65,19.48-2.9,0-6.15-5-6.15-8.73,0-6.49,10.3-20.71,14.1-25.18l-.45-.45c-6.26,4.7-32.34,29.77-35.36,35.7a1.47,1.47,0,0,1-1.35.78c-2,0-4.81-4-4.81-7.16a3.91,3.91,0,0,1,.56-2c2.58-5.49,11.64-21,15.33-25.41l-.44-.45c-6.27,4.7-30.89,28.32-33.92,34.25a1.45,1.45,0,0,1-1.34.78c-2,0-4.81-4-4.81-7.16a3.82,3.82,0,0,1,.56-2c5.71-9.07,23.28-32.57,23.28-36.27,0-.22-.11-.33-.11-.55a.9.9,0,0,1,1-.79c2.13,0,6.61,3,6.49,6.16-.11,1.34-9.62,14.44-16.67,24.28,10.41-11.19,27.42-28.09,31.78-28.09,2.13,0,7.28,4.93,7.28,7a.86.86,0,0,1-.67.9c-5.71,5.15-12.09,15-16.45,22.49,10.4-11.3,30.77-31.89,35.92-31.89,2.13,0,7.28,4.92,7.28,7a.85.85,0,0,1-.67.89c-7.95,6.38-17,20.82-17,25.19,0,.78.34,1.23,1,1.23,2.57,0,12.2-6.16,21.15-14a.82.82,0,0,1,.45-.12C479,96.06,480,97.74,480,99.2Z"/><path class="cls-14" d="M530.93,99.2a2.12,2.12,0,0,1-.22.89c-11.19,10.3-22.94,19.48-26.19,19.48-2.24,0-6.16-4-6.16-6.94,0-2.13,1.35-6.27,2.91-9.85-6.82,7.27-20.25,19.14-25.18,19.14-3.24,0-7.61-4.93-7.61-9.18,0-10.52,22.72-39.28,36-39.28,4.81,0,11.19,3.69,11.19,7.38,0,2.24-2.12,6.16-4.36,6.16a2.62,2.62,0,0,1-1.46-.56,6.79,6.79,0,0,0,1.23-3.92c0-1.34-.67-2.68-2.91-2.68-10.63,0-30.55,25.29-30.55,31.67A1.28,1.28,0,0,0,479,113c5.26,0,26.3-19.37,28.54-21.61a2.75,2.75,0,0,1,1.9-.89c2.69,0,5.71,3.8,5.71,5.15a.57.57,0,0,1-.22.44c-1.23,1.35-7.16,10.3-7.16,13.32,0,.67.22,1,.78,1,2.35,0,11.3-6.71,20-14.21a.82.82,0,0,1,.45-.12C529.93,96.06,530.93,97.74,530.93,99.2Z"/><path class="cls-15" d="M581.63,99.2a2.12,2.12,0,0,1-.22.89c-9.07,8.73-24.74,21.38-29.89,21.38-2.24,0-7.27-2.46-9.51-9.85a32.21,32.21,0,0,1-.9-3.8c-9.28,9.17-16.56,17.79-16.9,20.81,0,1-.33,1.46-.78,1.46-1,0-2.8-2.24-2.8-4.25,0-4.26,8.73-14.89,19.37-25.41-.34-2.8-.56-5.71-.79-8.51-2.68,2.8-5.48,5.49-8.5,8.17a.82.82,0,0,1-.45.12c-1.12,0-1.79-1.79-1.79-3.14a2.19,2.19,0,0,1,.11-.89c3.58-3.14,7.27-6.61,10.52-10,0-3.81.22-6.83.67-8.06.9-2.58,4.37-3.58,6.94-3.58,1.79,0,3,.44,3,1a.79.79,0,0,1-.45.67c-1,.56-1.67,7.06-1.67,14.55v2.36c11.41-10.64,23-19.48,26.74-19.48,2.24,0,4.37,3,4.37,4.81,0,.79-.45,1.35-1.57,1.12-6.71,2.24-18.35,11.53-29.1,21.49.68,7.05,2.13,13,4.7,13,3.59,0,18.36-10.63,26.53-17.9a.8.8,0,0,1,.45-.12C580.62,96.06,581.63,97.74,581.63,99.2Z"/><path class="cls-16" d="M570.21,112.85c0-6.94,18.92-36.93,23.73-36.93,2.35,0,6.6,2.57,6.6,4.14,0,.22-.11.45-.56.67-2.8,1.23-20.14,24.62-20.14,30.11,0,.67.33,1.12,1,1.12,3,0,15.23-8.17,23.73-15.78a.8.8,0,0,1,.45-.12c.89,0,1.9,1.68,1.9,3.14a2.12,2.12,0,0,1-.22.89c-12.09,11.31-25.52,21.27-29.77,21.27C574.13,121.36,570.21,116,570.21,112.85Zm46.56-58.08a.51.51,0,0,1-.56.44c-2.57.45-11.3,10.64-12.87,12.76a.55.55,0,0,1-.45.23c-1.23,0-3.36-2.69-3.24-4.59.11-3.36,7.05-13.32,10.63-13.32C612.85,50.29,616.77,53.54,616.77,54.77Z"/><path class="cls-17" d="M528.19,42l-15.48,1.27L535,39.93l50.93-7.68,86.65-13.13c11.68-1.87,25.66-6.58,36.26,1.64,7.21,5.62,12.84,15.17,18.14,22.57,7.23,10.13,14.3,20.45,21.08,31,.5.8,2.12,4.47,2.95,4.76l28.23,10.28L680.18,69.26A7.2,7.2,0,0,1,675,64.52,55.14,55.14,0,0,1,672.18,54a154.57,154.57,0,0,1-.62-23.41c-18.66,1.33-74.28,5.82-114.48,9.09Z"/><path class="cls-18" d="M637.68,181.34v28.14h1.42c9.13-3.33,11.72-14.88,11.72-14.88s40.28,1.26,55.8,1.43c2.33,0,4.27,2,4.65,4.75a51.35,51.35,0,0,0,1.24,5.77h12V195.89s3,13.35,12.6,23.61,24.53,11.06,37.34,8,21.94-21.05,21.94-21.05c5,10,18.7,18.48,37.37,13.34,11.53-3.17,15.85-16,17.49-25.38,6.46.15,10.8.22,10.8.22s5.44-3.09,18.65-6.64,8.62-16.28,8.62-16.28-.88-19.54-1.37-20.32-2.37-4.42-2.37-2.71c0-1.56-.11-25.21-2.85-33.16,0,0-3.42-11.64-31.77-24.23s-37.3-15.88-37.3-15.88-38.12-44.11-49.18-51.82c-.56-.38-1.18-.78-1.84-1.2,0,0,0,0,0,0C749.91,14.48,718.31,1.88,702.83.06c-4.75-.55-21.34,2.62-42.56,7.47L447,44.86,591.06,24.65l71.76-10.06L698,9.66h0c4.51,0,6.46.95,8.79,2.84,1.28,1,2.67,2.35,4.66,3.95l7.64,8.49,36,39.8c3.7,1.38,7.7,1.44,11.46,2.09,6.06,1.08,12.11,2.22,18.16,3.46,7.27,1.89,15.31,4,22.52,6.13,2.35,1.13,3.67,1.42,4.32,1.24a142.1,142.1,0,0,1,14.83,5.09c12.81,5.78,43,17.08,46.81,24.54-5.77-1-24.44-5.15-25.64-4.13s-1.62.78-1.19,1-9.73-3-9.73-3S817.2,91.37,812,91.37s-21.68-1.18-20.36,4.22,14.48,28.89,45.5,34.8a59,59,0,0,1-23.35-6.11s-4.4,9.64-10.6,10.42-25.24,1.33-30.13,3.64c-24.81-22.59-43.17,2.33-43.17,2.33l-9.13-1.93-83.07,3.36v18.56l74.6-.55c-1.5,6.88-1.29,23.45-1.29,23.45ZM839.17,109l7,17.26c.79,2-.75,4.19-2.57,3.62-5.82-1.87-11.63-3.87-17.38-6.09-8.62-3.31-14.65-8.75-21.32-15.86-1.37-1.44-2.7-2.86-4-4.35s-4.26-3.93-5-6c-1.64-4.58,5.73-3,7.47-3a52,52,0,0,1,11.42.76c7.09,1.51,13.66,5.15,20.2,8.64A9.64,9.64,0,0,1,839.17,109Zm14.54,13.68c-1.18-.42-2.25.91-1.84,2.27.62,2.11,1.45,4.48,2,4.84,1.09.64,21.74,8.73,24.61,9s3.38,0,3.38,0-.07,2-4.41,1.67-22.15-7.2-23.79-8a4.39,4.39,0,0,1-2.25-2.7l-5.5-17.28c-.53-1.65.62-3.34,2.08-3.07l24.78,4.15s2,4-1.64,3.51c-2.89-.42-16.08-2.91-21.07-3.86-.89-.16-1.6.84-1.32,1.82l.3,1.11a3.64,3.64,0,0,0,2.41,2.58c5.46,1.48,21.49,6,21.86,7.33C873.76,127.59,868,127.57,853.71,122.64Zm26,11.24c-1.75.29-3.7-4-4.38-9.64s.21-10.42,2-10.68,3.7,4,4.37,9.64S881.46,133.59,879.71,133.88ZM852.4,167.59c.28-.77,4.77-13.32,6.67-15.57s7-1.35,16,0c0,0,10.35,2.31,11.65,2.89l-6.84,2.89.32,6.17-15.46-1.15s-5.54-1.36-6.86-1.6S852.77,167,852.4,167.59Zm-40.9-2.84s4.89-14.26,13.68-16,26.39,1.86,26.39,1.86-12.55.65-12.55,3.54c0,0-2.93,7.68-2.93,8.66s8.16,4,9.13,4.82S811.5,164.75,811.5,164.75Zm-48.87-3.49C773,162,781.32,172,782,184.14c.79,14.81-9.54,27-22.05,26.07-10.33-.79-18.71-10.68-19.35-22.89C739.78,172.52,750.12,160.31,762.63,161.26ZM726.48,177c1-18.39,13.79-33.14,29.36-33.78,10.47-.42,19.78,5.35,25.55,14.48-7.47-7.8-18.24-11.31-29.55-7.31-9.46,3.36-16.9,12.24-19.72,23.46-3.06,12.19-.79,23.87,4.68,32.53C730,199.33,725.88,188.74,726.48,177Z"/><path class="cls-19" d="M702.38,107.27c-21.5.89-43.37,1.43-64.7,1.74v-7.87C679.34,103.13,702.38,107.27,702.38,107.27Z"/><path class="cls-20" d="M52.17,72a4.64,4.64,0,0,1-1.48.8,5.54,5.54,0,0,1-1.6.24,4.86,4.86,0,0,1-2.65-.77,10.4,10.4,0,0,1-2.15-1.78,10.55,10.55,0,0,1-1.45-2,2.25,2.25,0,0,1-.4-1.42,14.83,14.83,0,0,0,2.56-2,19.19,19.19,0,0,0,2.49-2.83,14.64,14.64,0,0,0,1.75-3.14,5.56,5.56,0,0,0,.47-2.89A2.18,2.18,0,0,0,48.94,55a3.92,3.92,0,0,0-2.06-.74,4.31,4.31,0,0,0-1-.12h-1a25.37,25.37,0,0,0-4.64.46,32,32,0,0,0-5,1.35,27.81,27.81,0,0,0-4.64,2.19,14.64,14.64,0,0,0-3.7,3,10.78,10.78,0,0,0-2.15,3.88,8.36,8.36,0,0,0,0,4.65A12.21,12.21,0,0,0,26.07,73a23.92,23.92,0,0,0,2.19,3.2A40.87,40.87,0,0,0,31,79.31c1,1,2,2,3,3q1.84,1.9,3.69,3.84A35.17,35.17,0,0,1,41,90.26a26.26,26.26,0,0,1,2.46,4.4,16.07,16.07,0,0,1,1.23,4.87,16.32,16.32,0,0,1-1.57,7.57,23.46,23.46,0,0,1-4.92,7,24.69,24.69,0,0,1-7.54,5,21.4,21.4,0,0,1-9.42,1.72,28,28,0,0,1-6.12-1.32,28.77,28.77,0,0,1-6.4-3A22.84,22.84,0,0,1,3.3,112a13.41,13.41,0,0,1-3-6.37A15.17,15.17,0,0,1,.72,98a16.84,16.84,0,0,1,5.1-7.11L5.64,91c.25-.29.89-.22,1.94.19a24,24,0,0,1,3.32,1.63A24.36,24.36,0,0,1,14,94.88c.9.72,1.33,1.26,1.29,1.63l-1.41,1c-.78.5-1.55,1-2.31,1.54a10.57,10.57,0,0,0-2,1.82,6.79,6.79,0,0,0-1.29,2.28A6,6,0,0,0,8.1,106a8.29,8.29,0,0,0,1.73,4,9.31,9.31,0,0,0,3.07,2.4,13.58,13.58,0,0,0,3.85,1.17,28.37,28.37,0,0,0,4.09.31,18.1,18.1,0,0,0,6.28-1A12.49,12.49,0,0,0,31.73,110a10.2,10.2,0,0,0,2.62-4.49,13.42,13.42,0,0,0,.22-6,11.47,11.47,0,0,0-1.17-3.27,21.37,21.37,0,0,0-2.06-3.1,33.18,33.18,0,0,0-2.68-3c-1-1-2-1.92-3-2.86q-1.84-1.73-3.57-3.48A33.13,33.13,0,0,1,19,80.2a22.21,22.21,0,0,1-2.3-3.94,11.83,11.83,0,0,1-1.05-4.37,16,16,0,0,1,1-6.52A21.1,21.1,0,0,1,20,59.49a28.12,28.12,0,0,1,5.14-5,33.19,33.19,0,0,1,6.4-3.76,35.71,35.71,0,0,1,7.17-2.31A29.18,29.18,0,0,1,46,47.89a11.52,11.52,0,0,1,3.94,1,9.15,9.15,0,0,1,2.8,2,8.88,8.88,0,0,1,1.79,2.8,16.32,16.32,0,0,1,1,3.39,16.5,16.5,0,0,1,.15,4A26.36,26.36,0,0,1,55,65.09a24.33,24.33,0,0,1-1.17,3.73,17.57,17.57,0,0,1-1.51,3Z"/></g></g></svg>