<svg width="232" height="94" viewBox="0 0 232 94" fill="none" xmlns="http://www.w3.org/2000/svg">
<g clip-path="url(#clip0_122_809)">
<path d="M226.9 55.8057C227.737 55.8523 228.562 55.8673 229.368 55.8628C227.872 53.7361 226.134 51.7881 224.188 50.0576C218.579 50.1598 216.878 51.3643 216.878 52.4998C216.878 53.5858 219.366 55.3867 226.9 55.8057Z" fill="#D7D7D7"/>
<path d="M48.6219 59.4258C39.36 59.4258 31.8249 67.1054 31.8249 76.5484C31.8249 85.9914 39.36 93.6711 48.6219 93.6711C57.8837 93.6711 65.4203 85.9914 65.4203 76.5484C65.4203 67.1054 57.8837 59.4258 48.6219 59.4258ZM48.6219 86.0109C46.7395 86.0109 44.8995 85.456 43.3344 84.4162C41.7693 83.3765 40.5495 81.8986 39.8292 80.1696C39.1089 78.4405 38.9204 76.5379 39.2876 74.7024C39.6548 72.8668 40.5612 71.1808 41.8922 69.8574C43.2232 68.5341 44.919 67.6328 46.7652 67.2677C48.6113 66.9026 50.5249 67.09 52.2639 67.8062C54.0029 68.5224 55.4893 69.7352 56.535 71.2913C57.5808 72.8474 58.139 74.6769 58.139 76.5484C58.137 79.0567 57.1334 81.4616 55.3488 83.2346C53.5642 85.0075 51.1446 86.0034 48.6219 86.0034V86.0109Z" fill="#D7D7D7"/>
<path d="M190.963 59.4258C181.701 59.4258 174.165 67.1054 174.165 76.5484C174.165 85.9914 181.701 93.6711 190.963 93.6711C200.225 93.6711 207.762 85.9914 207.762 76.5484C207.762 67.1054 200.225 59.4258 190.963 59.4258ZM190.963 86.0109C189.081 86.0109 187.241 85.456 185.676 84.4162C184.111 83.3765 182.891 81.8986 182.17 80.1696C181.45 78.4405 181.262 76.5379 181.629 74.7024C181.996 72.8668 182.903 71.1808 184.234 69.8574C185.565 68.5341 187.26 67.6328 189.106 67.2677C190.953 66.9026 192.866 67.09 194.605 67.8062C196.344 68.5224 197.831 69.7352 198.876 71.2913C199.922 72.8474 200.48 74.6769 200.48 76.5484C200.478 79.0567 199.475 81.4616 197.69 83.2346C195.905 85.0075 193.486 86.0034 190.963 86.0034V86.0109Z" fill="#D7D7D7"/>
<path d="M123.041 57.6518C122.946 57.413 122.792 57.413 122.697 57.6518L121.6 60.4004C121.576 60.4486 121.565 60.5023 121.569 60.556C121.573 60.6097 121.591 60.6614 121.622 60.7056C121.653 60.7498 121.695 60.7849 121.745 60.8074C121.794 60.8298 121.848 60.8386 121.902 60.833H123.834C123.888 60.8386 123.942 60.8298 123.992 60.8074C124.041 60.7849 124.083 60.7498 124.114 60.7056C124.145 60.6614 124.163 60.6097 124.167 60.556C124.171 60.5023 124.16 60.4486 124.136 60.4004L123.041 57.6518Z" fill="#D7D7D7"/>
<path d="M230.802 58.8384C230.06 58.891 229.291 58.9195 228.525 58.9195C227.885 58.9195 227.235 58.901 226.575 58.8639C223.287 58.6792 220.191 58.0499 217.865 57.0886C214.102 55.534 213.405 53.58 213.484 52.2117C213.635 49.5787 216.591 48.1112 220.17 47.4473C216.647 45.3536 212.429 43.7374 207.472 42.5749C192.01 38.9506 169.914 37.8346 169.692 37.8256C169.241 37.801 168.805 37.6574 168.429 37.4096C168.188 37.2504 144.409 21.5366 127.708 17.2529C123.712 16.2353 119.658 15.4614 115.568 14.9354V1.37843C115.558 1.1816 115.47 0.996644 115.324 0.863456C115.178 0.730268 114.985 0.659524 114.787 0.666485H104.323C104.125 0.659926 103.932 0.730851 103.786 0.863997C103.641 0.997144 103.553 1.18187 103.543 1.37843V13.9531C101.892 13.89 100.212 13.8494 98.493 13.8374C88.8807 13.7728 82.2006 14.1964 76.167 15.2553C60.4109 18.0189 49.5448 22.3672 39.9567 26.2048C34.5652 28.3616 29.9063 30.2256 25.1402 31.5008C21.4482 32.4891 12.2996 33.1845 5.28115 33.5915C5.26558 33.5901 5.2499 33.5901 5.23432 33.5915C4.97298 33.6035 4.7207 33.6186 4.479 33.6321C4.23729 33.6456 3.88984 33.7613 3.80222 34.4747L3.73727 35.2122L3.10581 41.9261H17.2757C16.9056 42.7161 16.4736 43.5497 15.9766 44.3938H2.87317L2.58313 47.4954H13.8179C11.1667 50.7127 7.3719 53.4027 2.08008 53.4027H2.02721L0.700852 67.5214C0.702307 67.5334 0.702307 67.5455 0.700852 67.5574L0.499935 69.3238C0.425913 70.279 1.23109 70.7041 1.56797 70.8393C3.27349 71.2899 23.2942 75.7688 28.5769 76.3966C28.6041 76.3966 28.6359 76.3966 28.6615 76.4056C28.7492 65.318 37.662 56.3286 48.6203 56.3286C59.6269 56.3286 68.5821 65.3961 68.5821 76.5453C68.5821 76.8808 68.5735 77.2127 68.5564 77.5412L170.912 78.1209C170.956 78.1209 171 78.1209 171.044 78.1209H171.071C171.032 77.5967 171.003 77.0695 171.003 76.5393C171.003 65.3901 179.956 56.3226 190.965 56.3226C201.973 56.3226 210.922 65.3901 210.922 76.5393C210.921 77.4597 210.857 78.379 210.731 79.291L210.883 79.2805C215.112 79.0356 228.051 76.7781 228.183 76.7526L228.251 76.7436L229.542 76.5543C229.889 76.46 230.2 76.268 230.439 76.0014C230.678 75.7349 230.835 75.4053 230.89 75.0524C230.943 74.5402 231.003 73.9784 231.056 73.3821C232.017 63.0515 231.177 59.7441 230.802 58.8384ZM57.6646 34.2299C57.6223 34.2299 57.5785 34.2299 57.5377 34.2299C57.154 34.1893 56.7823 34.0061 56.6147 33.6801L56.4485 33.3332L55.8926 32.1316L55.7491 31.8207C55.388 31.0201 55.9243 30.5215 56.3533 30.3532C56.3533 30.3532 56.5467 30.2766 56.6373 30.2421C63.6045 27.5686 71.5595 24.9131 82.0027 23.0791C86.2235 22.3386 90.9881 21.9692 97.2376 21.9016H97.5398C98.1848 21.9016 98.6682 22.5024 98.6682 23.1512V34.73C98.6686 35.0636 98.5358 35.3837 98.299 35.62C98.0622 35.8562 97.7408 35.9894 97.4053 35.9902C97.3615 35.9902 97.3177 35.9902 97.2769 35.9902L57.6646 34.2299ZM83.823 70.2956C83.8222 70.5013 83.7397 70.6983 83.5934 70.8438C83.4471 70.9892 83.2489 71.0713 83.042 71.0721H78.0418C77.835 71.0713 77.637 70.9892 77.4909 70.8437C77.3449 70.6982 77.2627 70.5011 77.2623 70.2956V65.324C77.2627 65.1186 77.3449 64.9217 77.491 64.7764C77.6371 64.6311 77.8351 64.5494 78.0418 64.549H83.042C83.2488 64.5494 83.447 64.6311 83.5933 64.7763C83.7396 64.9215 83.8222 65.1184 83.823 65.324V70.2956ZM83.823 55.3884C83.8222 55.5939 83.7396 55.7908 83.5933 55.936C83.447 56.0813 83.2488 56.163 83.042 56.1634H78.0418C77.8351 56.163 77.6371 56.0812 77.491 55.9359C77.3449 55.7907 77.2627 55.5938 77.2623 55.3884V50.4153C77.2627 50.2099 77.3449 50.0129 77.491 49.8677C77.6371 49.7224 77.8351 49.6406 78.0418 49.6403H83.042C83.2488 49.6406 83.447 49.7224 83.5933 49.8676C83.7396 50.0128 83.8222 50.2097 83.823 50.4153V55.3884ZM91.3189 62.8487C91.3185 63.0541 91.2362 63.251 91.0901 63.3963C90.944 63.5416 90.746 63.6233 90.5394 63.6237H85.5391C85.3324 63.6233 85.1342 63.5416 84.9878 63.3964C84.8415 63.2512 84.7589 63.0543 84.7581 62.8487V57.8696C84.7589 57.6641 84.8415 57.4672 84.9878 57.322C85.1342 57.1767 85.3324 57.095 85.5391 57.0946H90.5349C90.7415 57.095 90.9395 57.1768 91.0856 57.322C91.2317 57.4673 91.314 57.6642 91.3144 57.8696L91.3189 62.8487ZM98.8163 70.3016C98.8159 70.5071 98.7337 70.7042 98.5876 70.8497C98.4416 70.9952 98.2435 71.0773 98.0368 71.0781H93.035C92.8282 71.0773 92.6302 70.9952 92.4842 70.8497C92.3381 70.7042 92.2559 70.5071 92.2555 70.3016V65.33C92.2559 65.1246 92.3382 64.9277 92.4842 64.7824C92.6303 64.6372 92.8284 64.5554 93.035 64.555H98.0368C98.2434 64.5554 98.4414 64.6372 98.5875 64.7824C98.7336 64.9277 98.8159 65.1246 98.8163 65.33V70.3016ZM113.968 55.7428C113.968 55.8662 113.918 55.9844 113.831 56.0716C113.743 56.1589 113.624 56.208 113.5 56.2084H110.601C110.477 56.2084 110.358 56.2575 110.27 56.3448C110.182 56.4321 110.133 56.5506 110.133 56.6741V65.3675C110.132 65.4909 110.083 65.6091 109.995 65.6964C109.907 65.7836 109.788 65.8328 109.664 65.8332H107.057C106.933 65.8328 106.814 65.7836 106.726 65.6964C106.638 65.6091 106.589 65.4909 106.589 65.3675V56.668C106.589 56.5446 106.539 56.4261 106.451 56.3388C106.364 56.2515 106.244 56.2024 106.12 56.2024H103.224C103.1 56.202 102.981 56.1529 102.894 56.0656C102.806 55.9784 102.756 55.8602 102.756 55.7368V53.58C102.756 53.4565 102.805 53.338 102.893 53.2507C102.981 53.1634 103.1 53.1143 103.224 53.1143H113.497C113.621 53.1143 113.74 53.1634 113.828 53.2507C113.916 53.338 113.965 53.4565 113.965 53.58L113.968 55.7428ZM129.579 65.8332H126.709C126.572 65.8262 126.44 65.7824 126.326 65.7065C126.213 65.6305 126.122 65.5253 126.064 65.4021L125.487 63.9947C125.429 63.8715 125.338 63.7663 125.224 63.6904C125.111 63.6145 124.979 63.5707 124.842 63.5637H120.854C120.717 63.5702 120.585 63.6139 120.472 63.6899C120.359 63.7659 120.269 63.8713 120.212 63.9947L119.645 65.4021C119.589 65.5257 119.499 65.6314 119.386 65.7076C119.273 65.7839 119.141 65.8279 119.005 65.8347H116.216C116.163 65.8413 116.109 65.8329 116.06 65.8107C116.011 65.7884 115.97 65.753 115.94 65.7085C115.91 65.6641 115.894 65.6122 115.892 65.5589C115.89 65.5056 115.904 65.4528 115.93 65.4066L121.009 53.4598C121.069 53.3371 121.161 53.2326 121.276 53.1573C121.391 53.082 121.523 53.0387 121.66 53.0317H124.139C124.276 53.0387 124.409 53.082 124.524 53.1573C124.638 53.2326 124.73 53.3371 124.79 53.4598L129.866 65.4021C129.892 65.4484 129.905 65.5009 129.903 65.5539C129.901 65.6069 129.884 65.6583 129.854 65.7024C129.824 65.7464 129.783 65.7814 129.734 65.8034C129.686 65.8254 129.632 65.8337 129.579 65.8272V65.8332ZM144.107 65.8332H140.97C140.828 65.8248 140.69 65.7853 140.566 65.7175C140.441 65.6497 140.334 65.5554 140.25 65.4411L138.305 62.3936C138.283 62.3457 138.247 62.305 138.203 62.2765C138.158 62.248 138.106 62.2328 138.053 62.2328C138 62.2328 137.948 62.248 137.904 62.2765C137.859 62.305 137.824 62.3457 137.802 62.3936L135.838 65.4411C135.755 65.5558 135.647 65.6505 135.522 65.7183C135.398 65.7861 135.259 65.8254 135.117 65.8332H132.078C131.819 65.8332 131.727 65.6604 131.871 65.4472L135.732 59.7531C135.802 59.6365 135.84 59.5031 135.84 59.3671C135.84 59.2312 135.802 59.0977 135.732 58.9811L132.051 53.5079C131.907 53.2946 132.001 53.1204 132.259 53.1204H135.401C135.543 53.1282 135.681 53.1677 135.805 53.2358C135.929 53.3039 136.037 53.399 136.119 53.5139L137.886 56.3046C137.908 56.3527 137.943 56.3936 137.987 56.4223C138.032 56.4511 138.083 56.4664 138.136 56.4664C138.189 56.4664 138.241 56.4511 138.285 56.4223C138.33 56.3936 138.365 56.3527 138.386 56.3046L140.167 53.5124C140.25 53.3974 140.357 53.3024 140.482 53.2343C140.606 53.1662 140.745 53.1267 140.886 53.1189H143.932C144.189 53.1189 144.282 53.2931 144.139 53.5049L140.453 58.9436C140.382 59.0604 140.345 59.1941 140.345 59.3303C140.345 59.4666 140.382 59.6003 140.453 59.7171L144.314 65.4411C144.465 65.6529 144.364 65.8272 144.107 65.8272V65.8332ZM150.792 65.3675C150.791 65.4909 150.742 65.6091 150.654 65.6964C150.566 65.7836 150.448 65.8328 150.323 65.8332H147.698C147.574 65.8332 147.455 65.7841 147.367 65.6968C147.279 65.6095 147.23 65.491 147.23 65.3675V53.58C147.23 53.4565 147.279 53.338 147.367 53.2507C147.455 53.1634 147.574 53.1143 147.698 53.1143H150.323C150.448 53.1147 150.566 53.1639 150.654 53.2512C150.742 53.3384 150.791 53.4566 150.792 53.58V65.3675ZM151.937 38.4024L151.532 38.3829L103.678 36.2636C103.634 36.2636 103.591 36.2636 103.551 36.2636C103.238 36.2319 102.948 36.0857 102.737 35.8533C102.527 35.621 102.411 35.3191 102.412 35.0064V23.1963C102.411 23.0308 102.444 22.8669 102.507 22.7139C102.571 22.5609 102.664 22.4219 102.781 22.3049C102.899 22.1878 103.039 22.0949 103.193 22.0317C103.346 21.9684 103.511 21.9359 103.678 21.9361C111.865 22.1539 119.068 23.0851 125.618 24.7629C133.601 26.8101 144.489 32.064 152.159 36.3026L152.446 36.4603C152.877 36.6931 155.865 38.467 151.937 38.3964V38.4024Z" fill="#D7D7D7"/>
</g>
<defs>
<clipPath id="clip0_122_809">
<rect width="231" height="93" fill="white" transform="translate(0.5 0.666504)"/>
</clipPath>
</defs>
</svg>
