<svg width="960" height="674" viewBox="0 0 960 674" fill="none" xmlns="http://www.w3.org/2000/svg">
<g clip-path="url(#clip0_173_352)">
<rect width="960" height="674" fill="white"/>
<path d="M799.568 682.053L780.966 610.49C783.719 598.528 767.183 560.616 767.183 560.616L748.588 536.01C729.987 511.404 692.784 497.429 687.96 496.773C683.136 496.117 575.671 447.778 575.671 447.778C575.671 447.778 572.484 500.538 570.63 511.621C568.775 522.704 513.673 688.104 513.673 681.881C513.673 675.658 501.278 613.159 499.902 604.293C499.264 600.203 496.193 592.19 492.624 584.26C488.438 574.999 483.544 565.89 481.065 563.495C478.07 560.603 486.258 548.405 492.535 539.443C495.855 534.704 498.646 530.876 498.965 529.806C499.284 528.736 496.352 524.615 492.503 520.003C486.003 512.207 476.942 502.748 476.942 502.748L492.478 491.181L557.305 442.873L557.764 440.217C557.764 440.217 551.793 414.942 550.416 410.063C549.04 405.184 550.416 405.604 554.552 399.419C558.688 393.234 564.194 373.705 566.947 367.055C569.699 360.405 574.294 339.57 574.753 336.901C575.212 334.232 580.271 335.576 585.784 331.576C591.296 327.576 595.884 313.85 598.637 304.983C601.39 296.116 602.773 279.269 603.174 273.504C603.576 267.74 600.937 262.415 599.523 260.198C598.108 257.981 594.508 256.657 594.508 256.657L595.387 249.013C599.484 231.057 608.132 187.087 599.453 166.883C598.433 164.481 597.464 162.214 596.566 160.054C596.569 160.044 596.569 160.033 596.566 160.023C593.896 148.277 590.378 142.697 590.378 142.697L586.676 137.015C585.643 134.947 584.372 133.007 582.891 131.232C581.31 128.811 579.386 125.869 577.066 122.314C573.051 116.174 565.889 110.078 557.821 104.543C539.105 91.7337 515.527 81.9817 515.527 81.9817L495.307 73.5547C489.062 70.9559 480.109 69.7329 470.703 69.2233C449.674 68.1469 426.414 70.8858 426.414 70.8858L401.619 79.7651C389.422 84.1283 380.112 95.1414 373.803 105.205L350.314 129.964C348.224 131.926 346.42 134.856 344.477 138.882L341.813 142.965C341.813 142.965 338.512 148.194 335.88 159.188C334.905 161.532 333.86 164.029 332.726 166.666C324.149 186.699 332.554 230.127 336.69 248.357L337.677 256.911C337.677 256.911 334.077 258.243 332.662 260.466C331.248 262.689 328.609 268.001 329.011 273.759C329.412 279.517 330.795 296.371 333.548 305.244C336.301 314.117 340.896 327.856 346.408 331.844C351.92 335.831 356.967 334.5 357.426 337.169C357.885 339.838 362.485 360.666 365.238 367.316C367.991 373.966 373.523 393.47 377.639 399.681C381.756 405.891 383.145 405.413 381.769 410.331C380.392 415.248 374.421 440.478 374.421 440.478L374.88 443.134L439.694 491.416L455.243 502.996C455.243 502.996 446.163 512.461 439.643 520.252C435.82 524.857 432.857 528.889 433.195 530.042C433.532 531.195 436.298 534.94 439.618 539.666C445.901 548.628 454.109 560.839 451.088 563.743C448.61 566.132 443.722 575.209 439.535 584.509C435.967 592.42 432.889 600.433 432.264 604.528C430.881 613.395 418.487 675.919 418.487 682.13C418.487 688.34 363.403 522.946 361.568 511.863C359.733 500.78 356.508 448.02 356.508 448.02C356.508 448.02 249.043 496.378 244.225 497.015C239.407 497.652 202.198 511.665 183.597 536.246L164.996 560.858C164.996 560.858 148.472 598.77 151.225 610.739L132.624 682.295C132.624 682.295 131.266 696.531 139.551 705.181L147.835 713.825C147.835 713.825 176.651 730.342 194.099 734.667L211.553 738.992C211.553 738.992 264.77 752.737 302.68 756.19L340.571 759.687L439.344 764.744V765.648H456.9L461.68 765.897H492.905V764.54L591.678 759.445L629.563 755.96C667.447 752.463 720.689 738.718 720.689 738.718L738.137 734.393C755.598 730.08 784.414 713.564 784.414 713.564L792.698 704.914C800.944 696.289 799.568 682.053 799.568 682.053Z" fill="#7E7E7E"/>
</g>
<defs>
<clipPath id="clip0_173_352">
<rect width="960" height="674" fill="white"/>
</clipPath>
</defs>
</svg>
