<svg width="15" height="15" viewBox="0 0 15 15" fill="none" xmlns="http://www.w3.org/2000/svg">
<path fill-rule="evenodd" clip-rule="evenodd" d="M11.968 6.26481C11.7474 5.70599 11.4145 5.19842 10.9897 4.77356C10.565 4.34871 10.0575 4.01563 9.49872 3.79498C9.36677 3.94475 9.26142 4.116 9.18722 4.30131C9.70964 4.49123 10.1841 4.79335 10.5771 5.18641C10.9702 5.57946 11.2723 6.0539 11.4622 6.57631C11.6475 6.50211 11.8188 6.39676 11.9686 6.26481M8.02989 4.07731L7.89631 4.07556C7.14072 4.07556 6.40236 4.30131 5.77596 4.72384C5.14956 5.14637 4.66369 5.74642 4.38067 6.447C4.09765 7.14758 4.0304 7.91674 4.18755 8.65581C4.34469 9.39487 4.71906 10.0701 5.26263 10.595C5.8062 11.1198 6.49418 11.4702 7.2383 11.6014C7.98243 11.7325 8.74875 11.6383 9.43898 11.3309C10.1292 11.0235 10.7118 10.5168 11.1121 9.87601C11.5124 9.23517 11.7121 8.48935 11.6856 7.73423C11.8863 7.67123 12.0761 7.58859 12.255 7.48631C12.2655 7.61192 12.2709 7.73889 12.2713 7.86723C12.2712 8.74876 12.0049 9.60971 11.5071 10.3373C11.0094 11.0648 10.3035 11.625 9.48187 11.9445C8.66027 12.264 7.76132 12.3278 6.90282 12.1277C6.04432 11.9275 5.26631 11.4726 4.67075 10.8227C4.07519 10.1728 3.68986 9.35809 3.56524 8.48542C3.44062 7.61274 3.58254 6.72277 3.97239 5.93213C4.36224 5.14149 4.98184 4.48706 5.75 4.0546C6.51816 3.62214 7.39904 3.43181 8.27722 3.50856C8.17456 3.68898 8.09145 3.87983 8.0293 4.07789" fill="#454545"/>
<path d="M10.813 6.70056C11.7795 6.70056 12.563 5.91706 12.563 4.95056C12.563 3.98406 11.7795 3.20056 10.813 3.20056C9.84646 3.20056 9.06296 3.98406 9.06296 4.95056C9.06296 5.91706 9.84646 6.70056 10.813 6.70056Z" fill="#f82c00"/>
</svg>
