<svg width="62" height="62" viewBox="0 0 62 62" fill="none" xmlns="http://www.w3.org/2000/svg">
<g clip-path="url(#clip0_161_160)">
<path d="M1.33044 30.6289C1.32899 35.8381 2.70039 40.9245 5.30809 45.4078L1.08105 60.7256L16.8754 56.6153C21.244 58.9756 26.1385 60.2124 31.1124 60.2128H31.1255C47.5453 60.2128 60.9114 46.9517 60.9184 30.6522C60.9215 22.754 57.8252 15.3269 52.1997 9.73925C46.5751 4.15204 39.0946 1.07343 31.1243 1.06982C14.7026 1.06982 1.33722 14.3301 1.33044 30.6289Z" fill="url(#paint0_linear_161_160)"/>
<path d="M0.266887 30.6193C0.265192 36.016 1.68575 41.2843 4.38642 45.9281L0.0078125 61.795L16.3685 57.5374C20.8764 59.9768 25.9519 61.263 31.1164 61.2649H31.1297C48.1386 61.2649 61.9848 47.5268 61.9921 30.6439C61.995 22.4618 58.7873 14.7678 52.9608 8.97991C47.1335 3.19276 39.3855 0.00336434 31.1297 0C14.1179 0 0.273667 13.7361 0.266887 30.6193ZM10.0103 45.1283L9.3994 44.1659C6.83141 40.1133 5.47599 35.4301 5.47792 30.6213C5.48325 16.5884 16.99 5.17147 31.1394 5.17147C37.9916 5.17436 44.4312 7.82546 49.2746 12.6355C54.1179 17.446 56.783 23.8407 56.7813 30.6419C56.775 44.6748 45.2679 56.0932 31.1297 56.0932H31.1196C26.516 56.0908 22.0011 54.8638 18.0636 52.545L17.1266 51.9935L7.41784 54.5199L10.0103 45.1283Z" fill="url(#paint1_linear_161_160)"/>
<path d="M23.4161 17.8185C22.8384 16.5441 22.2304 16.5184 21.681 16.4961C21.2312 16.4769 20.7169 16.4783 20.2031 16.4783C19.6888 16.4783 18.8533 16.6703 18.147 17.4357C17.44 18.2018 15.4478 20.0531 15.4478 23.8186C15.4478 27.584 18.2111 31.2232 18.5964 31.7344C18.9821 32.2446 23.9311 40.219 31.7692 43.2868C38.2834 45.8363 39.609 45.3292 41.0228 45.2014C42.4368 45.074 45.5854 43.3505 46.2278 41.5633C46.8706 39.7764 46.8706 38.2446 46.6779 37.9245C46.4852 37.6056 45.9709 37.4141 45.1997 37.0315C44.4285 36.649 40.6371 34.7971 39.9303 34.5417C39.2233 34.2865 38.7093 34.1591 38.195 34.9255C37.6807 35.6906 36.204 37.4141 35.7539 37.9245C35.3043 38.4361 34.8542 38.4998 34.0832 38.117C33.3116 37.733 30.8281 36.9258 27.8817 34.3187C25.5892 32.29 24.0415 29.7847 23.5917 29.0184C23.1418 28.2532 23.5435 27.8385 23.9302 27.4571C24.2766 27.1142 24.7016 26.5634 25.0875 26.1167C25.472 25.6697 25.6003 25.3508 25.8575 24.8404C26.1149 24.3295 25.986 23.8825 25.7936 23.4997C25.6003 23.1169 24.1018 19.3317 23.4161 17.8185Z" fill="white"/>
</g>
<defs>
<linearGradient id="paint0_linear_161_160" x1="2992.95" y1="5966.65" x2="2992.95" y2="1.06982" gradientUnits="userSpaceOnUse">
<stop stop-color="#1FAF38"/>
<stop offset="1" stop-color="#60D669"/>
</linearGradient>
<linearGradient id="paint1_linear_161_160" x1="3099.22" y1="6179.5" x2="3099.22" y2="0" gradientUnits="userSpaceOnUse">
<stop stop-color="#F9F9F9"/>
<stop offset="1" stop-color="white"/>
</linearGradient>
<clipPath id="clip0_161_160">
<rect width="62" height="62" fill="white"/>
</clipPath>
</defs>
</svg>
