<svg width="232" height="93" viewBox="0 0 232 93" fill="none" xmlns="http://www.w3.org/2000/svg">
<g clip-path="url(#clip0_77_317)">
<path d="M226.9 55.1412C227.737 55.1878 228.562 55.2028 229.368 55.1983C227.872 53.0716 226.134 51.1236 224.188 49.3931C218.579 49.4953 216.878 50.6999 216.878 51.8354C216.878 52.9213 219.366 54.7222 226.9 55.1412Z" fill="#FFD900"/>
<path d="M48.6218 58.761C39.36 58.761 31.8248 66.4407 31.8248 75.8837C31.8248 85.3267 39.36 93.0063 48.6218 93.0063C57.8836 93.0063 65.4202 85.3267 65.4202 75.8837C65.4202 66.4407 57.8836 58.761 48.6218 58.761ZM48.6218 85.3462C46.7395 85.3462 44.8994 84.7912 43.3344 83.7515C41.7693 82.7117 40.5494 81.2339 39.8291 79.5048C39.1088 77.7758 38.9203 75.8732 39.2875 74.0377C39.6548 72.2021 40.5612 70.516 41.8922 69.1927C43.2232 67.8693 44.9189 66.9681 46.7651 66.603C48.6112 66.2379 50.5248 66.4253 52.2638 67.1415C54.0028 67.8577 55.4892 69.0705 56.535 70.6266C57.5807 72.1827 58.1389 74.0122 58.1389 75.8837C58.1369 78.392 57.1333 80.7969 55.3487 82.5698C53.5641 84.3428 51.1446 85.3387 48.6218 85.3387V85.3462Z" fill="#FFD900"/>
<path d="M190.963 58.761C181.701 58.761 174.165 66.4407 174.165 75.8837C174.165 85.3267 181.701 93.0063 190.963 93.0063C200.225 93.0063 207.762 85.3267 207.762 75.8837C207.762 66.4407 200.225 58.761 190.963 58.761ZM190.963 85.3462C189.081 85.3462 187.241 84.7912 185.676 83.7515C184.111 82.7117 182.891 81.2339 182.17 79.5048C181.45 77.7758 181.262 75.8732 181.629 74.0377C181.996 72.2021 182.903 70.516 184.234 69.1927C185.565 67.8693 187.26 66.9681 189.106 66.603C190.953 66.2379 192.866 66.4253 194.605 67.1415C196.344 67.8577 197.831 69.0705 198.876 70.6266C199.922 72.1827 200.48 74.0122 200.48 75.8837C200.478 78.392 199.475 80.7969 197.69 82.5698C195.906 84.3428 193.486 85.3387 190.963 85.3387V85.3462Z" fill="#FFD900"/>
<path d="M123.041 56.9872C122.946 56.7484 122.792 56.7484 122.697 56.9872L121.6 59.7359C121.576 59.784 121.565 59.8378 121.569 59.8915C121.573 59.9452 121.591 59.9968 121.622 60.041C121.653 60.0852 121.695 60.1204 121.745 60.1428C121.794 60.1652 121.848 60.1741 121.902 60.1684H123.834C123.888 60.1741 123.942 60.1652 123.992 60.1428C124.041 60.1204 124.083 60.0852 124.114 60.041C124.145 59.9968 124.163 59.9452 124.167 59.8915C124.171 59.8378 124.16 59.784 124.136 59.7359L123.041 56.9872Z" fill="#FFD900"/>
<path d="M230.802 58.1737C230.06 58.2263 229.291 58.2548 228.525 58.2548C227.885 58.2548 227.235 58.2363 226.575 58.1993C223.286 58.0145 220.191 57.3852 217.865 56.4239C214.102 54.8694 213.405 52.9153 213.484 51.547C213.635 48.914 216.591 47.4466 220.17 46.7827C216.647 44.6889 212.429 43.0728 207.471 41.9102C192.01 38.2859 169.914 37.17 169.692 37.161C169.241 37.1363 168.805 36.9927 168.429 36.7449C168.188 36.5857 144.409 20.8719 127.707 16.5882C123.712 15.5707 119.658 14.7967 115.568 14.2707V0.713753C115.558 0.516928 115.47 0.331971 115.324 0.198783C115.178 0.0655949 114.985 -0.00514932 114.787 0.00181186H104.323C104.125 -0.00474689 103.932 0.0661778 103.786 0.199324C103.641 0.332471 103.553 0.517197 103.543 0.713753V13.2884C101.892 13.2253 100.212 13.1847 98.4929 13.1727C88.8807 13.1081 82.2006 13.5317 76.167 14.5906C60.4109 17.3543 49.5448 21.7025 39.9566 25.5401C34.5651 27.6969 29.9063 29.5609 25.1402 30.8361C21.4481 31.8244 12.2996 32.5198 5.28111 32.9269C5.26554 32.9254 5.24986 32.9254 5.23428 32.9269C4.97294 32.9389 4.72066 32.9539 4.47896 32.9674C4.23725 32.9809 3.8898 33.0966 3.80219 33.81L3.73723 34.5475L3.10577 41.2614H17.2757C16.9056 42.0514 16.4735 42.885 15.9765 43.7291H2.87313L2.58309 46.8307H13.8178C11.1666 50.048 7.37186 52.7381 2.08004 52.7381H2.02717L0.700814 66.8567C0.702269 66.8687 0.702269 66.8808 0.700814 66.8928L0.499897 68.6591C0.425875 69.6144 1.23105 70.0394 1.56793 70.1746C3.27346 70.6252 23.2941 75.1041 28.5769 75.732C28.6041 75.732 28.6358 75.732 28.6615 75.741C28.7491 64.6533 37.662 55.6639 48.6202 55.6639C59.6269 55.6639 68.582 64.7314 68.582 75.8807C68.582 76.2161 68.5735 76.548 68.5563 76.8765L170.912 77.4562C170.956 77.4562 171 77.4562 171.044 77.4562H171.071C171.031 76.9321 171.003 76.4049 171.003 75.8746C171.003 64.7254 179.956 55.6579 190.965 55.6579C201.973 55.6579 210.922 64.7254 210.922 75.8746C210.92 76.7951 210.857 77.7144 210.731 78.6263L210.883 78.6158C215.112 78.371 228.051 76.1135 228.183 76.0879L228.251 76.0789L229.542 75.8897C229.889 75.7953 230.2 75.6033 230.439 75.3368C230.678 75.0703 230.835 74.7406 230.89 74.3877C230.942 73.8755 231.003 73.3138 231.056 72.7175C232.017 62.3868 231.177 59.0794 230.802 58.1737ZM57.6645 33.5652C57.6222 33.5652 57.5784 33.5652 57.5376 33.5652C57.1539 33.5246 56.7823 33.3414 56.6146 33.0155L56.4484 32.6685L55.8925 31.4669L55.749 31.156C55.388 30.3555 55.9243 29.8568 56.3533 29.6886C56.3533 29.6886 56.5466 29.612 56.6373 29.5774C63.6044 26.9039 71.5595 24.2484 82.0027 22.4145C86.2234 21.674 90.988 21.3045 97.2376 21.2369H97.5397C98.1848 21.2369 98.6682 21.8377 98.6682 22.4865V34.0654C98.6686 34.3989 98.5358 34.719 98.299 34.9553C98.0622 35.1916 97.7408 35.3247 97.4053 35.3255C97.3615 35.3255 97.3177 35.3255 97.2769 35.3255L57.6645 33.5652ZM83.823 69.6309C83.8222 69.8366 83.7397 70.0337 83.5934 70.1791C83.4471 70.3246 83.2489 70.4066 83.042 70.4074H78.0417C77.835 70.4066 77.6369 70.3245 77.4909 70.179C77.3448 70.0335 77.2626 69.8365 77.2622 69.6309V64.6593C77.2626 64.4539 77.3449 64.257 77.491 64.1117C77.6371 63.9665 77.8351 63.8847 78.0417 63.8843H83.042C83.2487 63.8847 83.4469 63.9664 83.5933 64.1116C83.7396 64.2569 83.8222 64.4538 83.823 64.6593V69.6309ZM83.823 54.7237C83.8222 54.9292 83.7396 55.1261 83.5933 55.2714C83.4469 55.4166 83.2487 55.4983 83.042 55.4987H78.0417C77.8351 55.4983 77.6371 55.4165 77.491 55.2713C77.3449 55.126 77.2626 54.9291 77.2622 54.7237V49.7506C77.2626 49.5452 77.3449 49.3483 77.491 49.203C77.6371 49.0578 77.8351 48.976 78.0417 48.9756H83.042C83.2487 48.976 83.4469 49.0577 83.5933 49.2029C83.7396 49.3481 83.8222 49.545 83.823 49.7506V54.7237ZM91.3189 62.184C91.3185 62.3895 91.2362 62.5864 91.0901 62.7316C90.944 62.8769 90.746 62.9587 90.5394 62.9591H85.5391C85.3323 62.9587 85.1341 62.8769 84.9878 62.7317C84.8415 62.5865 84.7589 62.3896 84.7581 62.184V57.205C84.7589 56.9994 84.8415 56.8025 84.9878 56.6573C85.1341 56.5121 85.3323 56.4303 85.5391 56.4299H90.5348C90.7414 56.4303 90.9395 56.5121 91.0856 56.6574C91.2317 56.8026 91.3139 56.9995 91.3143 57.205L91.3189 62.184ZM98.8162 69.6369C98.8158 69.8425 98.7336 70.0395 98.5876 70.185C98.4415 70.3305 98.2435 70.4126 98.0367 70.4134H93.035C92.8282 70.4126 92.6302 70.3305 92.4841 70.185C92.3381 70.0395 92.2559 69.8425 92.2555 69.6369V64.6653C92.2559 64.4599 92.3381 64.263 92.4842 64.1177C92.6303 63.9725 92.8283 63.8907 93.035 63.8903H98.0367C98.2433 63.8907 98.4414 63.9725 98.5875 64.1177C98.7336 64.263 98.8158 64.4599 98.8162 64.6653V69.6369ZM113.968 55.0781C113.968 55.2015 113.918 55.3197 113.83 55.407C113.743 55.4942 113.624 55.5434 113.5 55.5438H110.601C110.477 55.5438 110.358 55.5928 110.27 55.6801C110.182 55.7675 110.133 55.8859 110.133 56.0094V64.7029C110.132 64.8262 110.083 64.9444 109.995 65.0317C109.907 65.1189 109.788 65.1681 109.664 65.1685H107.057C106.933 65.1681 106.814 65.1189 106.726 65.0317C106.638 64.9444 106.589 64.8262 106.589 64.7029V56.0034C106.589 55.8799 106.539 55.7615 106.451 55.6741C106.364 55.5868 106.244 55.5378 106.12 55.5378H103.224C103.1 55.5374 102.981 55.4882 102.894 55.4009C102.806 55.3137 102.756 55.1955 102.756 55.0721V52.9153C102.756 52.7918 102.805 52.6734 102.893 52.586C102.981 52.4987 103.1 52.4497 103.224 52.4497H113.497C113.621 52.4497 113.74 52.4987 113.828 52.586C113.916 52.6734 113.965 52.7918 113.965 52.9153L113.968 55.0781ZM129.579 65.1685H126.709C126.572 65.1615 126.44 65.1177 126.326 65.0418C126.213 64.9659 126.122 64.8606 126.064 64.7374L125.487 63.3301C125.429 63.2068 125.338 63.1016 125.224 63.0257C125.111 62.9498 124.978 62.906 124.842 62.899H120.854C120.717 62.9055 120.585 62.9492 120.472 63.0252C120.359 63.1012 120.269 63.2067 120.212 63.3301L119.645 64.7374C119.589 64.861 119.499 64.9667 119.386 65.043C119.273 65.1193 119.141 65.1632 119.005 65.17H116.216C116.163 65.1766 116.109 65.1683 116.06 65.146C116.011 65.1237 115.97 65.0883 115.94 65.0439C115.91 64.9994 115.894 64.9476 115.892 64.8942C115.89 64.8409 115.904 64.7881 115.93 64.7419L121.009 52.7951C121.069 52.6724 121.161 52.5679 121.276 52.4926C121.39 52.4174 121.523 52.374 121.66 52.3671H124.139C124.276 52.374 124.409 52.4174 124.524 52.4926C124.638 52.5679 124.73 52.6724 124.79 52.7951L129.866 64.7374C129.892 64.7837 129.905 64.8362 129.903 64.8893C129.901 64.9423 129.884 64.9936 129.854 65.0377C129.824 65.0817 129.783 65.1167 129.734 65.1387C129.686 65.1608 129.632 65.169 129.579 65.1625V65.1685ZM144.107 65.1685H140.969C140.828 65.1602 140.69 65.1207 140.566 65.0529C140.441 64.9851 140.334 64.8907 140.25 64.7765L138.305 61.7289C138.283 61.681 138.247 61.6403 138.203 61.6118C138.158 61.5833 138.106 61.5681 138.053 61.5681C138 61.5681 137.948 61.5833 137.904 61.6118C137.859 61.6403 137.824 61.681 137.802 61.7289L135.838 64.7765C135.755 64.8911 135.647 64.9858 135.522 65.0536C135.397 65.1214 135.259 65.1607 135.117 65.1685H132.078C131.819 65.1685 131.727 64.9958 131.871 64.7825L135.732 59.0885C135.802 58.9718 135.839 58.8384 135.839 58.7024C135.839 58.5665 135.802 58.4331 135.732 58.3164L132.051 52.8432C131.907 52.6299 132.001 52.4557 132.259 52.4557H135.401C135.543 52.4636 135.681 52.503 135.805 52.5711C135.929 52.6393 136.037 52.7343 136.119 52.8492L137.886 55.6399C137.908 55.688 137.943 55.729 137.987 55.7577C138.031 55.7864 138.083 55.8017 138.136 55.8017C138.189 55.8017 138.241 55.7864 138.285 55.7577C138.33 55.729 138.365 55.688 138.386 55.6399L140.167 52.8477C140.25 52.7328 140.357 52.6377 140.482 52.5696C140.606 52.5015 140.745 52.4621 140.886 52.4542H143.932C144.189 52.4542 144.282 52.6284 144.139 52.8402L140.453 58.2789C140.382 58.3957 140.345 58.5294 140.345 58.6656C140.345 58.8019 140.382 58.9356 140.453 59.0524L144.314 64.7765C144.465 64.9883 144.364 65.1625 144.107 65.1625V65.1685ZM150.792 64.7029C150.791 64.8262 150.742 64.9444 150.654 65.0317C150.566 65.1189 150.448 65.1681 150.323 65.1685H147.698C147.574 65.1685 147.455 65.1194 147.367 65.0321C147.279 64.9448 147.23 64.8264 147.23 64.7029V52.9153C147.23 52.7918 147.279 52.6734 147.367 52.586C147.455 52.4987 147.574 52.4497 147.698 52.4497H150.323C150.448 52.4501 150.566 52.4993 150.654 52.5865C150.742 52.6737 150.791 52.7919 150.792 52.9153V64.7029ZM151.937 37.7377L151.532 37.7182L103.678 35.5989C103.634 35.5989 103.591 35.5989 103.551 35.5989C103.238 35.5672 102.948 35.421 102.737 35.1886C102.527 34.9563 102.411 34.6544 102.412 34.3417V22.5316C102.411 22.3661 102.444 22.2022 102.507 22.0492C102.571 21.8963 102.664 21.7573 102.781 21.6402C102.899 21.5231 103.039 21.4303 103.192 21.367C103.346 21.3037 103.511 21.2712 103.678 21.2714C111.865 21.4892 119.068 22.4205 125.618 24.0982C133.601 26.1454 144.489 31.3993 152.159 35.6379L152.446 35.7957C152.876 36.0285 155.865 37.8023 151.937 37.7317V37.7377Z" fill="#FFD900"/>
</g>
<defs>
<clipPath id="clip0_77_317">
<rect width="231" height="93" fill="white" transform="translate(0.5 0.00183105)"/>
</clipPath>
</defs>
</svg>
