<svg width="35" height="24" viewBox="0 0 35 24" fill="none" xmlns="http://www.w3.org/2000/svg">
<g clip-path="url(#clip0_447_1752)">
<path d="M33.3828 3.74333C33.187 3.01981 32.8051 2.36019 32.2751 1.83017C31.7451 1.30015 31.0855 0.918215 30.362 0.7224C27.7132 0 17.0527 0 17.0527 0C17.0527 0 6.39159 0.0218666 3.74279 0.744267C3.01926 0.940093 2.35965 1.32205 1.82965 1.85209C1.29965 2.38214 0.917751 3.04178 0.721988 3.76533C-0.0792118 8.47173 -0.390012 15.6432 0.743988 20.1613C0.939771 20.8849 1.32168 21.5445 1.85167 22.0745C2.38167 22.6045 3.04127 22.9865 3.76479 23.1823C6.41359 23.9047 17.0744 23.9047 17.0744 23.9047C17.0744 23.9047 27.7351 23.9047 30.3837 23.1823C31.1073 22.9865 31.7669 22.6045 32.2969 22.0745C32.8269 21.5445 33.2089 20.8849 33.4047 20.1613C34.2497 15.4483 34.5101 8.2812 33.3828 3.74333Z" fill="#FF0000"/>
<path d="M13.6594 17.0749L22.5032 11.9525L13.6594 6.83008V17.0749Z" fill="white"/>
</g>
<defs>
<clipPath id="clip0_447_1752">
<rect width="34.14" height="24" fill="white"/>
</clipPath>
</defs>
</svg>
